<svg width="144" height="32" viewBox="0 0 144 32" fill="none" xmlns="http://www.w3.org/2000/svg">
<g clip-path="url(#clip0_187_2663)">
<path fill-rule="evenodd" clip-rule="evenodd" d="M28.9747 1.69971C29.276 1.98846 29.5143 2.33532 29.6747 2.71884C29.8352 3.10236 29.9144 3.51438 29.9076 3.92942V4.00955C29.9041 4.41379 29.8199 4.81336 29.6598 5.18526C29.4997 5.55716 29.2668 5.89406 28.9747 6.17656C28.6829 6.47477 28.3324 6.71057 27.9449 6.86937C27.5573 7.02817 27.141 7.1066 26.7216 7.0998C25.8844 7.10454 25.079 6.78301 24.4795 6.20472C23.88 5.62644 23.5346 4.83788 23.518 4.00955V3.92942C23.5111 3.51438 23.5904 3.10236 23.7508 2.71884C23.9113 2.33532 24.1496 1.98846 24.4509 1.69971C24.7467 1.40199 25.1005 1.16669 25.4907 1.00801C25.881 0.849326 26.2997 0.770562 26.7216 0.776469C27.141 0.769671 27.5573 0.848099 27.9449 1.0069C28.3324 1.1657 28.6829 1.4015 28.9747 1.69971Z" fill="#EB5C60"/>
<path fill-rule="evenodd" clip-rule="evenodd" d="M143.301 26.1047V31.2435H127.582V3.92948H133.972V26.1047H143.301ZM112.532 3.92948L123.586 31.2435H117.514L115.349 25.3905H104.048L101.865 31.2435H95.9334L106.952 3.92948H112.532ZM105.808 20.6349H113.588L109.716 10.1831L105.808 20.6349ZM85.6713 3.92948H91.9905V31.2435H86.745L72.9977 14.6774V31.2435H66.6609V3.92948H71.9416L85.6713 20.4956V3.92948ZM50.2205 8.84182C48.9657 8.82532 47.7186 9.03791 46.5417 9.46893C45.4758 9.86494 44.5047 10.4759 43.6901 11.2632C42.8785 12.0429 42.2479 12.988 41.8419 14.0329C41.4026 15.1663 41.1875 16.3727 41.2082 17.5865C41.187 18.7946 41.4022 19.9954 41.8419 21.1227C42.2571 22.1679 42.8864 23.1169 43.6901 23.9098C44.4902 24.7024 45.4498 25.3196 46.5065 25.7215C47.6708 26.1537 48.9067 26.3664 50.1501 26.3486C51.4022 26.3498 52.6456 26.1438 53.829 25.7389C54.2708 25.5853 54.7004 25.399 55.1139 25.1814V17.1684H60.9402V28.2299C59.3618 29.3826 57.5928 30.255 55.7124 30.808C53.792 31.4019 51.7924 31.7072 49.7805 31.7138C47.7374 31.7351 45.7081 31.3807 43.7957 30.6686C42.0139 30.0177 40.3805 29.023 38.9903 27.7421C37.6495 26.4655 36.5785 24.9378 35.8396 23.2479C35.0853 21.4548 34.708 19.5285 34.7306 17.5865C34.7276 16.7701 34.7888 15.9547 34.9137 15.1477C35.5097 14.7099 36.0722 14.229 36.5964 13.7089C38.6774 11.699 40.0373 9.07105 40.4689 6.22539C41.5025 5.50345 42.6268 4.91786 43.8133 4.48342C45.7517 3.77893 47.8037 3.43063 49.8685 3.45567C52.1307 3.4489 54.3746 3.85641 56.4869 4.65762C57.1018 4.88183 57.7015 5.14482 58.2823 5.44499C58.483 5.54951 58.8526 5.76551 59.3913 6.08952V11.9251C58.5202 11.2891 57.6024 10.7185 56.6453 10.218C56.0157 9.92071 55.3622 9.67599 54.6915 9.48635C53.9754 9.28562 53.2461 9.13428 52.5088 9.03344C51.7519 8.91318 50.987 8.84913 50.2205 8.84182V8.84182ZM23.518 17.3949C24.5869 17.631 25.6792 17.7479 26.7744 17.7433C27.8274 17.7465 28.8776 17.6391 29.9076 17.4227V31.2435H23.518V17.3949ZM18.8887 23.4639C18.869 24.8444 18.4933 26.1971 17.7973 27.3937C16.9818 28.8663 15.7058 30.0374 14.1607 30.7313C12.3693 31.5736 10.3853 31.934 8.40834 31.7765C6.24679 31.6441 4.49244 31.276 3.14529 30.6721C2.16569 30.2638 1.23522 29.7484 0.37119 29.1357V22.5162C1.58516 23.6612 2.97104 24.6132 4.47954 25.3382C5.97689 26.0536 7.16211 26.4484 8.03517 26.5228C8.87411 26.6002 9.72028 26.5174 10.5276 26.2789C11.189 26.0945 11.786 25.7328 12.2527 25.2337C12.6097 24.8082 12.803 24.2713 12.7983 23.7182C12.8086 23.3779 12.7366 23.0402 12.5885 22.7329C12.4403 22.4257 12.2202 22.1579 11.9464 21.9518C11.2714 21.4443 10.5345 21.0229 9.75315 20.6976C8.86952 20.3109 7.89084 19.9103 6.82415 19.4957C5.822 19.1108 4.85799 18.6349 3.94443 18.0742C3.12519 17.5707 2.39399 16.9388 1.77936 16.2034C1.20989 15.5291 0.808343 14.732 0.607059 13.8761C0.40462 13.055 0.301802 12.2129 0.300781 11.3677C0.341286 10.3387 0.555468 9.32359 0.934459 8.36452C1.42176 7.14307 2.23743 6.07683 3.29315 5.28124C4.43377 4.36846 5.99684 3.84238 7.98237 3.69257C9.59737 3.56262 11.2226 3.64463 12.8159 3.93645V3.93645C12.7939 5.91946 13.2046 7.88382 14.0199 9.69538C13.4402 9.43931 12.8439 9.22166 12.235 9.04389C11.2755 8.7236 10.2652 8.57841 9.25324 8.61536C8.68798 8.63754 8.13074 8.75537 7.60568 8.96376C7.32733 9.08987 7.07901 9.27269 6.87695 9.50028C6.70708 9.7021 6.56393 9.92454 6.45098 10.1622C6.33434 10.4256 6.24927 10.7015 6.19751 10.9844C6.13477 11.3375 6.12292 11.6976 6.1623 12.054C6.208 12.3754 6.32396 12.6832 6.5021 12.9557C6.68024 13.2283 6.91629 13.4592 7.19379 13.6322C7.85707 14.1108 8.59412 14.4802 9.37646 14.7262C10.1932 14.9956 11.2493 15.3765 12.5448 15.8689C13.713 16.2847 14.8264 16.838 15.8611 17.5168C16.7866 18.1664 17.5333 19.0347 18.0332 20.0427C18.5812 21.1025 18.874 22.2734 18.8887 23.4639V23.4639Z" fill="#283238"/>
</g>
<defs>
<clipPath id="clip0_187_2663">
<rect width="143" height="31" fill="white" transform="translate(0.300781 0.776489)"/>
</clipPath>
</defs>
</svg>
