<svg width="144" height="29" viewBox="0 0 144 29" fill="none" xmlns="http://www.w3.org/2000/svg">
<path fill-rule="evenodd" clip-rule="evenodd" d="M143.301 23.1046V28.2434H127.582V0.929419H133.972V23.1046H143.301ZM112.532 0.929419L123.586 28.2434H117.514L115.349 22.3904H104.048L101.865 28.2434H95.9334L106.952 0.929419H112.532ZM105.808 17.6349H113.588L109.716 7.18307L105.808 17.6349ZM85.6713 0.929419H91.9905V28.2434H86.745L72.9977 11.6773V28.2434H66.6609V0.929419H71.9416L85.6713 17.4955V0.929419ZM50.2205 5.84176C48.9657 5.82526 47.7186 6.03785 46.5417 6.46887C45.4758 6.86488 44.5047 7.47588 43.6901 8.26309C42.8785 9.04287 42.2479 9.98793 41.8419 11.0328C41.4026 12.1662 41.1875 13.3727 41.2082 14.5864C41.187 15.7946 41.4022 16.9954 41.8419 18.1226C42.2571 19.1679 42.8864 20.1168 43.6901 20.9098C44.4902 21.7023 45.4498 22.3195 46.5065 22.7214C47.6708 23.1536 48.9067 23.3663 50.1501 23.3485C51.4022 23.3498 52.6456 23.1437 53.829 22.7388C54.2708 22.5852 54.7004 22.3989 55.1139 22.1814V14.1683H60.9402V25.2298C59.3618 26.3826 57.5928 27.2549 55.7124 27.8079C53.792 28.4018 51.7924 28.7071 49.7805 28.7138C47.7374 28.7351 45.7081 28.3807 43.7957 27.6686C42.0139 27.0177 40.3805 26.0229 38.9903 24.7421C37.6495 23.4654 36.5785 21.9377 35.8396 20.2478C35.0853 18.4548 34.708 16.5285 34.7306 14.5864C34.7276 13.77 34.7888 12.9547 34.9137 12.1477C35.5097 11.7098 36.0722 11.2289 36.5964 10.7088C38.6774 8.69898 40.0373 6.07099 40.4689 3.22533C41.5025 2.50339 42.6268 1.9178 43.8133 1.48336C45.7517 0.778872 47.8037 0.430574 49.8685 0.455605C52.1307 0.448835 54.3746 0.856345 56.4869 1.65756C57.1018 1.88177 57.7015 2.14476 58.2823 2.44493C58.483 2.54945 58.8526 2.76545 59.3913 3.08945V8.92503C58.5202 8.28902 57.6024 7.71839 56.6453 7.21791C56.0157 6.92065 55.3622 6.67592 54.6915 6.48628C53.9754 6.28555 53.2461 6.13422 52.5088 6.03337C51.7519 5.91312 50.987 5.84907 50.2205 5.84176V5.84176ZM23.518 14.3948C24.5869 14.631 25.6792 14.7478 26.7744 14.7432C27.8274 14.7465 28.8776 14.639 29.9076 14.4227V28.2434H23.518V14.3948ZM18.8887 20.4638C18.869 21.8444 18.4933 23.1971 17.7973 24.3937C16.9818 25.8662 15.7058 27.0373 14.1607 27.7313C12.3693 28.5735 10.3853 28.934 8.40834 28.7765C6.24679 28.6441 4.49244 28.2759 3.14529 27.6721C2.16569 27.2637 1.23522 26.7484 0.37119 26.1356V19.5162C1.58516 20.6612 2.97104 21.6131 4.47954 22.3382C5.97689 23.0535 7.16211 23.4484 8.03517 23.5227C8.87411 23.6002 9.72028 23.5174 10.5276 23.2788C11.189 23.0944 11.786 22.7327 12.2527 22.2336C12.6097 21.8081 12.803 21.2712 12.7983 20.7181C12.8086 20.3779 12.7366 20.0401 12.5885 19.7329C12.4403 19.4257 12.2202 19.1579 11.9464 18.9518C11.2714 18.4443 10.5345 18.0229 9.75315 17.6976C8.86952 17.3109 7.89084 16.9102 6.82415 16.4956C5.822 16.1107 4.85799 15.6349 3.94443 15.0742C3.12519 14.5706 2.39399 13.9388 1.77936 13.2033C1.20989 12.5291 0.808343 11.7319 0.607059 10.876C0.40462 10.0549 0.301802 9.21282 0.300781 8.36761C0.341286 7.33859 0.555468 6.32353 0.934459 5.36446C1.42176 4.14301 2.23743 3.07676 3.29315 2.28118C4.43377 1.36839 5.99684 0.842321 7.98237 0.692512C9.59737 0.562562 11.2226 0.644565 12.8159 0.936387V0.936387C12.7939 2.9194 13.2046 4.88375 14.0199 6.69532C13.4402 6.43925 12.8439 6.2216 12.235 6.04383C11.2755 5.72354 10.2652 5.57834 9.25324 5.6153C8.68798 5.63747 8.13074 5.75531 7.60568 5.9637C7.32733 6.08981 7.07901 6.27263 6.87695 6.50022C6.70708 6.70204 6.56393 6.92448 6.45098 7.16217C6.33434 7.4255 6.24927 7.70145 6.19751 7.98438C6.13477 8.33746 6.12292 8.69756 6.1623 9.05394C6.208 9.37539 6.32396 9.68311 6.5021 9.95567C6.68024 10.2282 6.91629 10.4591 7.19379 10.6322C7.85707 11.1108 8.59412 11.4802 9.37646 11.7261C10.1932 11.9955 11.2493 12.3764 12.5448 12.8688C13.713 13.2846 14.8264 13.8379 15.8611 14.5167C16.7866 15.1663 17.5333 16.0346 18.0332 17.0426C18.5812 18.1024 18.874 19.2734 18.8887 20.4638V20.4638Z" fill="white"/>
</svg>
