<svg width="144" height="32" viewBox="0 0 144 32" fill="none" xmlns="http://www.w3.org/2000/svg">
<g clip-path="url(#clip0_187_2967)">
<path fill-rule="evenodd" clip-rule="evenodd" d="M28.9747 1.69971C29.276 1.98846 29.5143 2.33532 29.6747 2.71884C29.8352 3.10236 29.9144 3.51438 29.9076 3.92942V4.00955C29.9041 4.41379 29.8199 4.81336 29.6598 5.18526C29.4997 5.55716 29.2668 5.89406 28.9747 6.17656C28.6829 6.47477 28.3324 6.71057 27.9449 6.86937C27.5573 7.02817 27.141 7.1066 26.7216 7.0998C25.8844 7.10454 25.079 6.78301 24.4795 6.20472C23.88 5.62644 23.5346 4.83788 23.518 4.00955V3.92942C23.5111 3.51438 23.5904 3.10236 23.7508 2.71884C23.9113 2.33532 24.1496 1.98846 24.4509 1.69971C24.7467 1.40199 25.1005 1.16669 25.4907 1.00801C25.881 0.849326 26.2997 0.770562 26.7216 0.776469C27.141 0.769671 27.5573 0.848099 27.9449 1.0069C28.3324 1.1657 28.6829 1.4015 28.9747 1.69971Z" fill="#EB5C60"/>
<path fill-rule="evenodd" clip-rule="evenodd" d="M143.301 26.1046V31.2434H127.582V3.92942H133.972V26.1046H143.301ZM112.532 3.92942L123.586 31.2434H117.514L115.349 25.3904H104.048L101.865 31.2434H95.9334L106.952 3.92942H112.532ZM105.808 20.6349H113.588L109.716 10.1831L105.808 20.6349ZM85.6713 3.92942H91.9905V31.2434H86.745L72.9977 14.6773V31.2434H66.6609V3.92942H71.9416L85.6713 20.4955V3.92942ZM50.2205 8.84176C48.9657 8.82526 47.7186 9.03785 46.5417 9.46887C45.4758 9.86488 44.5047 10.4759 43.6901 11.2631C42.8785 12.0429 42.2479 12.9879 41.8419 14.0328C41.4026 15.1662 41.1875 16.3727 41.2082 17.5864C41.187 18.7946 41.4022 19.9954 41.8419 21.1226C42.2571 22.1679 42.8864 23.1168 43.6901 23.9097C44.4902 24.7023 45.4498 25.3195 46.5065 25.7214C47.6708 26.1536 48.9067 26.3663 50.1501 26.3485C51.4022 26.3498 52.6456 26.1437 53.829 25.7388C54.2708 25.5852 54.7004 25.3989 55.1139 25.1814V17.1683H60.9402V28.2298C59.3618 29.3826 57.5928 30.2549 55.7124 30.8079C53.792 31.4018 51.7924 31.7071 49.7805 31.7138C47.7374 31.7351 45.7081 31.3807 43.7957 30.6686C42.0139 30.0177 40.3805 29.0229 38.9903 27.7421C37.6495 26.4654 36.5785 24.9377 35.8396 23.2478C35.0853 21.4548 34.708 19.5285 34.7306 17.5864C34.7276 16.77 34.7888 15.9547 34.9137 15.1477C35.5097 14.7098 36.0722 14.2289 36.5964 13.7088C38.6774 11.699 40.0373 9.07099 40.4689 6.22533C41.5025 5.50339 42.6268 4.9178 43.8133 4.48336C45.7517 3.77887 47.8037 3.43057 49.8685 3.45561C52.1306 3.44883 54.3746 3.85635 56.4869 4.65756C57.1018 4.88177 57.7015 5.14476 58.2823 5.44493C58.483 5.54945 58.8526 5.76545 59.3913 6.08945V11.925C58.5202 11.289 57.6024 10.7184 56.6453 10.2179C56.0157 9.92065 55.3622 9.67592 54.6915 9.48628C53.9754 9.28555 53.2461 9.13422 52.5088 9.03337C51.7519 8.91312 50.987 8.84907 50.2205 8.84176ZM23.518 17.3948C24.5869 17.631 25.6792 17.7478 26.7744 17.7432C27.8274 17.7465 28.8776 17.639 29.9076 17.4227V31.2434H23.518V17.3948ZM18.8887 23.4638C18.869 24.8444 18.4933 26.1971 17.7973 27.3937C16.9818 28.8662 15.7058 30.0373 14.1607 30.7313C12.3693 31.5735 10.3853 31.934 8.40834 31.7765C6.24679 31.6441 4.49244 31.2759 3.14529 30.6721C2.16569 30.2637 1.23522 29.7484 0.37119 29.1356V22.5162C1.58516 23.6612 2.97104 24.6131 4.47954 25.3382C5.97689 26.0535 7.16211 26.4484 8.03517 26.5227C8.87411 26.6002 9.72028 26.5174 10.5276 26.2788C11.189 26.0944 11.786 25.7327 12.2527 25.2336C12.6097 24.8081 12.803 24.2712 12.7983 23.7181C12.8086 23.3779 12.7366 23.0401 12.5885 22.7329C12.4403 22.4257 12.2202 22.1579 11.9464 21.9518C11.2714 21.4443 10.5345 21.0229 9.75315 20.6976C8.86952 20.3109 7.89084 19.9102 6.82415 19.4956C5.822 19.1107 4.85799 18.6349 3.94443 18.0742C3.12519 17.5706 2.39399 16.9388 1.77936 16.2033C1.20989 15.5291 0.808343 14.7319 0.607059 13.876C0.40462 13.0549 0.301802 12.2128 0.300781 11.3676C0.341286 10.3386 0.555468 9.32353 0.934459 8.36446C1.42176 7.14301 2.23743 6.07676 3.29315 5.28118C4.43377 4.36839 5.99684 3.84232 7.98237 3.69251C9.59737 3.56256 11.2226 3.64457 12.8159 3.93639C12.7939 5.9194 13.2046 7.88375 14.0199 9.69532C13.4402 9.43925 12.8439 9.2216 12.235 9.04383C11.2755 8.72354 10.2652 8.57834 9.25324 8.6153C8.68798 8.63747 8.13074 8.75531 7.60568 8.9637C7.32733 9.08981 7.07901 9.27263 6.87695 9.50022C6.70708 9.70204 6.56393 9.92448 6.45098 10.1622C6.33434 10.4255 6.24927 10.7015 6.19751 10.9844C6.13477 11.3375 6.12292 11.6976 6.1623 12.0539C6.208 12.3754 6.32396 12.6831 6.5021 12.9557C6.68024 13.2282 6.91629 13.4591 7.19379 13.6322C7.85707 14.1108 8.59412 14.4802 9.37646 14.7261C10.1932 14.9955 11.2493 15.3764 12.5448 15.8688C13.713 16.2846 14.8264 16.8379 15.8611 17.5167C16.7866 18.1663 17.5333 19.0346 18.0332 20.0426C18.5812 21.1024 18.874 22.2734 18.8887 23.4638Z" fill="white"/>
</g>
<defs>
<clipPath id="clip0_187_2967">
<rect width="143" height="31" fill="white" transform="translate(0.300781 0.776489)"/>
</clipPath>
</defs>
</svg>
